<svg width="1440" height="1024" viewBox="0 0 1440 1024" fill="none" xmlns="http://www.w3.org/2000/svg">
<path d="M235.901 625.951C235.901 625.951 307.901 742.687 489.946 780.861C671.991 819.036 866.391 768.164 1025.25 729.928C1184.11 691.691 1267.66 593.92 1232.27 493.67C1196.87 393.421 1063.04 400.63 938.218 311.603C813.399 222.577 799.171 185.426 626.199 159.13C453.226 132.833 263.895 236.36 216.547 382.976C169.2 529.592 235.901 625.951 235.901 625.951Z" fill="#80C9AC"/>
<path opacity="0.8" d="M235.901 625.951C235.901 625.951 307.901 742.687 489.946 780.861C671.991 819.036 866.391 768.164 1025.25 729.928C1184.11 691.691 1267.66 593.92 1232.27 493.67C1196.87 393.421 1063.04 400.63 938.218 311.603C813.399 222.577 799.171 185.426 626.199 159.13C453.226 132.833 263.895 236.36 216.547 382.976C169.2 529.592 235.901 625.951 235.901 625.951Z" fill="white"/>
<path d="M1160.64 468.173C1160.64 468.173 1226.65 472.822 1260.09 501.924C1260.09 501.924 1295.45 468.214 1358.93 468.91C1374.44 455.602 1384.32 439.435 1387.41 422.291C1390.5 405.146 1386.68 387.729 1376.39 372.069C1366.11 356.408 1349.77 343.148 1329.3 333.832C1308.83 324.515 1285.05 319.527 1260.74 319.446C1236.44 319.366 1212.6 324.197 1192 333.378C1171.41 342.558 1154.9 355.71 1144.41 371.302C1133.92 386.894 1129.87 404.285 1132.74 421.449C1135.61 438.613 1145.27 454.845 1160.61 468.255L1160.64 468.173Z" fill="#80C9AC"/>
<path opacity="0.5" d="M1160.64 468.173C1160.64 468.173 1226.65 472.822 1260.09 501.924C1260.09 501.924 1295.45 468.214 1358.93 468.91C1374.44 455.602 1384.32 439.435 1387.41 422.291C1390.5 405.146 1386.68 387.729 1376.39 372.069C1366.11 356.408 1349.77 343.148 1329.3 333.832C1308.83 324.515 1285.05 319.527 1260.74 319.446C1236.44 319.366 1212.6 324.197 1192 333.378C1171.41 342.558 1154.9 355.71 1144.41 371.302C1133.92 386.894 1129.87 404.285 1132.74 421.449C1135.61 438.613 1145.27 454.845 1160.61 468.255L1160.64 468.173Z" fill="white"/>
<path d="M1257.87 325.878L1255.65 630.088H1266.8L1257.87 325.878Z" fill="#B8B8B8"/>
<path d="M1261.24 493.056C1261.24 493.056 1283.5 464.527 1323.62 455.803C1323.62 455.803 1281.28 462.95 1260.26 487.506L1261.24 493.056Z" fill="#B8B8B8"/>
<path d="M1261.24 412.242C1261.24 412.242 1283.5 383.713 1323.62 374.989C1323.62 374.989 1281.28 382.116 1260.26 406.692L1261.24 412.242Z" fill="#B8B8B8"/>
<path d="M1261.24 452.608C1261.24 452.608 1283.5 424.079 1323.62 415.355C1323.62 415.355 1281.28 422.502 1260.26 447.058L1261.24 452.608Z" fill="#B8B8B8"/>
<path d="M1257.93 432.824C1257.93 432.824 1236.41 404.316 1197.71 395.592C1197.71 395.592 1238.57 402.719 1258.99 427.295L1257.93 432.824Z" fill="#B8B8B8"/>
<path d="M1257.93 472.453C1257.93 472.453 1236.41 443.924 1197.71 435.22C1197.71 435.22 1238.57 442.348 1258.99 466.903L1257.93 472.453Z" fill="#B8B8B8"/>
<path d="M80.2656 468.173C80.2656 468.173 146.275 472.822 179.712 501.924C179.712 501.924 215.078 468.214 278.554 468.91C294.066 455.602 303.943 439.435 307.035 422.291C310.127 405.146 306.307 387.729 296.02 372.069C285.732 356.408 269.4 343.148 248.926 333.832C228.451 324.515 204.677 319.527 180.37 319.446C156.063 319.366 132.224 324.197 111.629 333.378C91.0334 342.558 74.529 355.71 64.0372 371.302C53.5454 386.894 49.4978 404.285 52.3658 421.449C55.2337 438.613 64.8992 454.845 80.2368 468.255L80.2656 468.173Z" fill="#80C9AC"/>
<path opacity="0.5" d="M80.2656 468.173C80.2656 468.173 146.275 472.822 179.712 501.924C179.712 501.924 215.078 468.214 278.554 468.91C294.066 455.602 303.943 439.435 307.035 422.291C310.127 405.146 306.307 387.729 296.02 372.069C285.732 356.408 269.4 343.148 248.926 333.832C228.451 324.515 204.677 319.527 180.37 319.446C156.063 319.366 132.224 324.197 111.629 333.378C91.0334 342.558 74.529 355.71 64.0372 371.302C53.5454 386.894 49.4978 404.285 52.3658 421.449C55.2337 438.613 64.8992 454.845 80.2368 468.255L80.2656 468.173Z" fill="white"/>
<path d="M177.552 325.878L175.305 630.088H186.451L177.552 325.878Z" fill="#B8B8B8"/>
<path d="M180.893 493.056C180.893 493.056 203.155 464.527 243.274 455.803C243.274 455.803 200.938 462.95 179.914 487.506L180.893 493.056Z" fill="#B8B8B8"/>
<path d="M180.893 412.242C180.893 412.242 203.155 383.713 243.274 374.989C243.274 374.989 200.938 382.116 179.914 406.692L180.893 412.242Z" fill="#B8B8B8"/>
<path d="M180.893 452.608C180.893 452.608 203.155 424.079 243.274 415.355C243.274 415.355 200.938 422.502 179.914 447.058L180.893 452.608Z" fill="#B8B8B8"/>
<path d="M177.581 432.824C177.581 432.824 156.067 404.316 117.36 395.592C117.36 395.592 158.227 402.719 178.646 427.295L177.581 432.824Z" fill="#B8B8B8"/>
<path d="M177.581 472.453C177.581 472.453 156.067 443.924 117.36 435.22C117.36 435.22 158.227 442.348 178.646 466.903L177.581 472.453Z" fill="#B8B8B8"/>
<path d="M892.426 497.664C892.426 497.664 946.455 501.453 973.815 525.271C973.815 525.271 1002.76 497.684 1054.71 498.237C1067.4 487.344 1075.48 474.112 1078.01 460.08C1080.53 446.049 1077.4 431.797 1068.98 418.982C1060.55 406.167 1047.18 395.318 1030.42 387.697C1013.67 380.075 994.209 375.996 974.317 375.933C954.425 375.87 934.917 379.827 918.064 387.342C901.212 394.857 887.708 405.622 879.124 418.383C870.541 431.144 867.232 445.376 869.581 459.423C871.931 473.469 879.843 486.752 892.397 497.725L892.426 497.664Z" fill="#80C9AC"/>
<path opacity="0.5" d="M892.426 497.664C892.426 497.664 946.455 501.453 973.815 525.271C973.815 525.271 1002.76 497.684 1054.71 498.237C1067.4 487.344 1075.48 474.112 1078.01 460.08C1080.53 446.049 1077.4 431.797 1068.98 418.982C1060.55 406.167 1047.18 395.318 1030.42 387.697C1013.67 380.075 994.209 375.996 974.317 375.933C954.425 375.87 934.917 379.827 918.064 387.342C901.212 394.857 887.708 405.622 879.124 418.383C870.541 431.144 867.232 445.376 869.581 459.423C871.931 473.469 879.843 486.752 892.397 497.725L892.426 497.664Z" fill="white"/>
<path d="M972.029 381.092L970.214 630.088H979.344L972.029 381.092Z" fill="#B8B8B8"/>
<path d="M974.765 517.939C974.765 517.939 993.024 494.592 1025.83 487.444C1025.83 487.444 991.267 493.281 973.987 513.393L974.765 517.939Z" fill="#B8B8B8"/>
<path d="M974.765 451.789C974.765 451.789 993.024 428.442 1025.83 421.315C1025.83 421.315 991.267 427.151 973.987 447.242L974.765 451.789Z" fill="#B8B8B8"/>
<path d="M974.765 484.864C974.765 484.864 993.024 461.517 1025.83 454.369C1025.83 454.369 991.267 460.206 973.987 480.317L974.765 484.864Z" fill="#B8B8B8"/>
<path d="M972.058 468.644C972.058 468.644 954.461 445.297 922.781 438.17C922.781 438.17 956.218 444.006 972.951 464.097L972.058 468.644Z" fill="#B8B8B8"/>
<path d="M972.058 501.064C972.058 501.064 954.461 477.716 922.781 470.589C922.781 470.589 956.218 476.426 972.951 496.538L972.058 501.064Z" fill="#B8B8B8"/>
<path d="M369.676 497.664C369.676 497.664 423.705 501.453 451.065 525.271C451.065 525.271 479.865 497.684 531.964 498.237C544.654 487.344 552.732 474.112 555.257 460.08C557.782 446.049 554.65 431.797 546.227 418.982C537.803 406.167 524.434 395.318 507.675 387.697C490.917 380.075 471.459 375.996 451.567 375.933C431.675 375.87 412.167 379.827 395.315 387.342C378.462 394.857 364.958 405.622 356.375 418.383C347.792 431.144 344.482 445.376 346.832 459.423C349.182 473.469 357.094 486.752 369.648 497.725L369.676 497.664Z" fill="#80C9AC"/>
<path opacity="0.5" d="M369.676 497.664C369.676 497.664 423.705 501.453 451.065 525.271C451.065 525.271 479.865 497.684 531.964 498.237C544.654 487.344 552.732 474.112 555.257 460.08C557.782 446.049 554.65 431.797 546.227 418.982C537.803 406.167 524.434 395.318 507.675 387.697C490.917 380.075 471.459 375.996 451.567 375.933C431.675 375.87 412.167 379.827 395.315 387.342C378.462 394.857 364.958 405.622 356.375 418.383C347.792 431.144 344.482 445.376 346.832 459.423C349.182 473.469 357.094 486.752 369.648 497.725L369.676 497.664Z" fill="white"/>
<path d="M449.28 381.092L447.466 630.088H456.595L449.28 381.092Z" fill="#B8B8B8"/>
<path d="M452.16 517.939C452.16 517.939 470.419 494.592 503.222 487.444C503.222 487.444 468.662 493.281 451.382 513.393L452.16 517.939Z" fill="#B8B8B8"/>
<path d="M452.16 451.789C452.16 451.789 470.419 428.442 503.222 421.315C503.222 421.315 468.662 427.151 451.382 447.242L452.16 451.789Z" fill="#B8B8B8"/>
<path d="M452.16 484.864C452.16 484.864 470.419 461.517 503.222 454.369C503.222 454.369 468.662 460.206 451.382 480.317L452.16 484.864Z" fill="#B8B8B8"/>
<path d="M449.28 468.644C449.28 468.644 431.712 445.297 400.032 438.272C400.032 438.272 433.469 444.109 450.201 464.2L449.28 468.644Z" fill="#B8B8B8"/>
<path d="M449.28 501.064C449.28 501.064 431.683 477.716 400.003 470.589C400.003 470.589 433.44 476.426 450.173 496.538L449.28 501.064Z" fill="#B8B8B8"/>
<path d="M100.138 631.173H1342.97" stroke="#263238" stroke-width="1.04742" stroke-miterlimit="10"/>
<path d="M542.908 247.235C542.908 231.404 554.659 222.351 576.115 222.351C597.571 222.351 609.35 231.404 609.35 247.235V298.721C609.35 314.552 597.599 323.604 576.115 323.604C554.63 323.604 542.908 314.552 542.908 298.721V247.235ZM564.796 299.704C564.796 306.77 569.174 309.453 576.115 309.453C583.055 309.453 587.462 306.77 587.462 299.704V246.251C587.462 239.186 583.084 236.503 576.115 236.503C569.145 236.503 564.796 239.186 564.796 246.251V299.704Z" fill="#263238"/>
<path d="M625.853 247.235C625.853 231.404 637.574 222.351 659.059 222.351C680.544 222.351 692.265 231.404 692.265 247.235V298.721C692.265 314.552 680.515 323.604 659.059 323.604C637.603 323.604 625.853 314.552 625.853 298.721V247.235ZM647.712 299.704C647.712 306.77 652.089 309.453 659.059 309.453C666.029 309.453 670.377 306.77 670.377 299.704V246.251C670.377 239.186 666 236.503 659.059 236.503C652.118 236.503 647.712 239.186 647.712 246.251V299.704Z" fill="#263238"/>
<path d="M775.382 247.951V260.813C775.382 276.664 764.639 285.389 742.78 285.389H732.441V322.58H710.553V223.498H742.78C764.639 223.498 775.382 232.12 775.382 247.951ZM732.441 237.711V271.217H742.78C749.721 271.217 753.494 268.964 753.494 261.898V247.05C753.494 239.964 749.721 237.711 742.78 237.711H732.441Z" fill="#263238"/>
<path d="M820.138 222.351C841.392 222.351 852.336 231.404 852.336 247.235V250.347H831.658V246.251C831.658 239.186 827.683 236.503 820.714 236.503C813.744 236.503 809.77 239.186 809.77 246.251C809.77 266.609 852.538 270.438 852.538 298.721C852.538 314.552 841.392 323.604 819.936 323.604C798.48 323.604 787.306 314.552 787.306 298.721V292.577H807.984V299.643C807.984 306.708 812.362 309.268 819.331 309.268C826.301 309.268 830.65 306.708 830.65 299.643C830.65 279.286 787.91 275.456 787.91 247.173C787.91 231.424 798.854 222.351 820.138 222.351Z" fill="#263238"/>
<path d="M872.035 300.544L869.155 264.786V223.498H891.043V264.786L888.163 300.544H872.035ZM890.726 307.487V322.478H869.76V307.487H890.726Z" fill="#263238"/>
<path d="M495.705 844.124C505.958 844.124 510.336 848.445 510.336 855.47V861.041C510.336 868.393 505.497 872.243 495.158 872.243H488.707V890.532H481.449V844.124H495.705ZM495.158 867.594C500.544 867.594 503.164 865.813 503.164 861.45V855.306C503.164 851.067 501.004 848.937 495.705 848.937H488.707V867.697L495.158 867.594Z" fill="#263238"/>
<path d="M524.333 881.173L521.798 890.532H515.088L527.587 844.124H538.128L550.627 890.532H543.341L540.835 881.173H524.333ZM525.254 876.749H539.798L532.425 849.92L525.254 876.749Z" fill="#263238"/>
<path d="M586.972 855.327V859.3H580.06V855.06C580.06 850.964 577.727 848.384 572.428 848.384C567.129 848.384 564.796 850.882 564.796 855.06V879.637C564.796 883.733 567.215 886.333 572.428 886.333C577.641 886.333 580.06 883.814 580.06 879.637V870.4H573.35V865.751H586.972V879.411C586.972 886.436 582.307 891.064 572.255 891.064C562.204 891.064 557.596 886.436 557.596 879.411V855.327C557.596 848.302 562.262 843.673 572.255 843.673C582.249 843.673 586.972 848.302 586.972 855.327Z" fill="#263238"/>
<path d="M618.94 864.686V869.315H603.014V885.822H622.569V890.532H595.728V844.124H622.569V848.835H603.014V864.686H618.94Z" fill="#263238"/>
<path d="M653.904 890.532H647.395V844.124H656.64L671.731 877.67V844.124H678.182V890.532H670.608L653.933 853.013L653.904 890.532Z" fill="#263238"/>
<path d="M686.908 855.327C686.908 848.241 691.833 843.673 701.827 843.673C711.82 843.673 716.831 848.241 716.831 855.327V879.329C716.831 886.354 711.878 890.982 701.827 890.982C691.775 890.982 686.908 886.354 686.908 879.329V855.327ZM694.079 879.595C694.079 883.835 696.614 886.292 701.827 886.292C707.039 886.292 709.545 883.835 709.545 879.595V855.019C709.545 850.923 707.126 848.343 701.827 848.343C696.527 848.343 694.079 850.841 694.079 855.019V879.595Z" fill="#263238"/>
<path d="M735.091 890.532V848.835H723.081V844.124H754.387V848.835H742.377V890.532H735.091Z" fill="#263238"/>
<path d="M799.891 865.731V870.4H784.886V890.491H777.6V844.124H803.52V848.835H784.886V865.731H799.891Z" fill="#263238"/>
<path d="M810.604 855.327C810.604 848.241 815.558 843.673 825.523 843.673C835.488 843.673 840.528 848.241 840.528 855.327V879.329C840.528 886.354 835.603 890.982 825.523 890.982C815.443 890.982 810.604 886.354 810.604 879.329V855.327ZM817.804 879.595C817.804 883.835 820.31 886.292 825.523 886.292C830.736 886.292 833.27 883.835 833.27 879.595V855.019C833.27 850.923 830.851 848.343 825.523 848.343C820.195 848.343 817.804 850.841 817.804 855.019V879.595Z" fill="#263238"/>
<path d="M856.195 879.596C856.195 883.692 858.527 886.293 863.827 886.293C869.126 886.293 871.401 883.773 871.401 879.596V844.124H878.198V879.329C878.198 886.354 873.619 891.064 863.568 891.064C853.516 891.064 849.023 886.354 849.023 879.329V844.124H856.195V879.596Z" fill="#263238"/>
<path d="M893.664 890.532H887.04V844.124H896.256L911.347 877.67V844.124H917.798V890.532H910.368L893.664 853.013V890.532Z" fill="#263238"/>
<path d="M942.509 844.124C952.675 844.124 957.341 848.507 957.341 855.654V879.063C957.341 886.149 952.675 890.532 942.509 890.532H927.36V844.124H942.509ZM942.509 885.822C947.722 885.822 950.256 883.507 950.256 879.268V855.388C950.256 851.149 947.722 848.835 942.422 848.835H934.589V885.822H942.509Z" fill="#263238"/>
<path opacity="0.3" d="M439.459 730.01C439.459 736.154 386.381 741.048 320.861 741.048C255.341 741.048 202.262 736.113 202.262 730.01C202.262 723.907 255.37 718.971 320.861 718.971C386.352 718.971 439.459 723.927 439.459 730.01Z" fill="black"/>
<path opacity="0.3" d="M687.744 730.01C687.744 736.154 634.637 741.048 569.146 741.048C503.655 741.048 450.547 736.113 450.547 730.01C450.547 723.907 503.655 718.971 569.146 718.971C634.637 718.971 687.744 723.927 687.744 730.01Z" fill="black"/>
<path opacity="0.3" d="M1016.64 730.01C1016.64 736.154 963.561 741.048 898.07 741.048C832.579 741.048 779.472 736.113 779.472 730.01C779.472 723.907 832.55 718.971 898.07 718.971C963.59 718.971 1016.64 723.927 1016.64 730.01Z" fill="black"/>
<path opacity="0.3" d="M1291.39 730.01C1291.39 736.154 1238.28 741.048 1172.79 741.048C1107.3 741.048 1054.08 736.113 1054.08 730.01C1054.08 723.907 1107.19 718.971 1172.68 718.971C1238.17 718.971 1291.39 723.927 1291.39 730.01Z" fill="black"/>
<path d="M910.887 407.081C910.887 407.081 906.02 421.417 906.02 423.834C906.017 425.328 905.785 426.819 905.328 428.278C905.328 428.278 894.932 437.146 896.314 439.603C897.994 441.514 900.401 443.048 903.255 444.027C903.255 444.027 908.784 458.363 914.343 459.305C920.052 460.063 925.824 460.556 931.623 460.779L933.696 472.596L961.402 469.647L954.49 451.912L957.37 436.634C957.37 436.634 962.208 430.244 957.37 419.901C952.532 409.559 942.135 409.067 935.194 409.067C927.049 408.701 918.936 408.038 910.887 407.081Z" fill="white" stroke="#263238" stroke-width="1.04742" stroke-linecap="round" stroke-linejoin="round"/>
<path d="M923.357 399.708C923.357 399.708 899.107 399.196 899.798 403.64C900.489 408.084 925.43 413.88 925.43 413.88C925.43 413.88 917.107 417.812 921.254 421.765C925.401 425.718 935.107 429.158 935.107 429.158C935.107 429.158 932.227 437.535 936.518 438.026C940.809 438.518 943.43 434.074 944.121 432.599C944.813 431.124 952.445 431.616 954.518 435.548C955.691 437.591 956.391 439.756 956.592 441.958C956.592 441.958 964.915 424.223 966.297 416.338C967.68 408.453 936.518 399.708 923.357 399.708Z" fill="#263238" stroke="#263238" stroke-width="1.04742" stroke-linecap="round" stroke-linejoin="round"/>
<path d="M938.707 438.272C938.707 438.272 947.088 425.165 952.099 431.616C957.11 438.067 954.979 444.785 950.054 445.501C945.129 446.218 941.011 446.915 941.011 446.915" fill="white"/>
<path d="M938.707 438.272C938.707 438.272 947.088 425.165 952.099 431.616C957.11 438.067 954.979 444.785 950.054 445.501C945.129 446.218 941.011 446.915 941.011 446.915" stroke="#263238" stroke-width="1.04742" stroke-linecap="round" stroke-linejoin="round"/>
<path d="M904.636 575.058C903.283 576.184 881.078 610.038 878.313 621.363C875.548 632.689 857.548 700.191 856.828 703.14C856.108 706.089 818.063 712.008 815.27 712.499C812.476 712.991 818.15 718.418 826.358 719.892C834.566 721.367 858.239 728.269 863.798 724.316C869.356 720.364 876.959 698.204 879.033 695.747C881.107 693.289 920.102 627.958 920.102 627.958C920.102 627.958 940.089 596.603 944.236 593.633C948.383 590.664 939.312 577.536 935.827 573.583C932.342 569.631 914.342 567.173 904.636 575.058Z" fill="#263238" stroke="#263238" stroke-width="1.04742" stroke-linecap="round" stroke-linejoin="round"/>
<path d="M900.49 575.488C900.49 575.488 910.195 608.502 915.034 620.319C919.562 630.244 926.375 639.566 935.194 647.905C940.752 653.332 967.766 701.153 967.766 701.153L971.914 708.547C971.914 708.547 970.531 711.496 962.928 715.428C955.325 719.36 933.811 725.77 939.37 727.265C944.928 728.76 967.075 728.74 977.472 728.248C986.423 727.797 994.814 724.985 1001 720.363C1005.18 716.902 994.09 707.051 994.09 705.085C994.09 703.119 969.84 643.031 968.457 640.061C967.075 637.092 960.134 615.936 960.134 615.936V591.872C960.134 591.872 963.619 587.448 963.619 577.536C963.619 567.624 953.222 565.699 953.222 565.699L896.4 569.651L900.49 575.488Z" fill="#263238" stroke="#263238" stroke-width="1.04742" stroke-linecap="round" stroke-linejoin="round"/>
<path d="M895.68 572.6C895.68 572.6 897.091 580.977 901.239 581.468C905.386 581.96 948.327 590.336 967.047 580.485C967.047 580.485 970.503 573.092 968.429 571.126C966.355 569.16 961.488 570.143 936.576 570.143C911.664 570.143 895.68 570.143 895.68 572.6Z" fill="#80C9AC" stroke="#263238" stroke-width="1.04742" stroke-linecap="round" stroke-linejoin="round"/>
<path d="M959.357 462.254C959.357 462.254 933.725 464.712 922.637 472.494C911.549 480.276 901.872 494.674 897.034 507.965C892.195 521.257 888.711 570.04 895.623 572.498C902.535 574.955 960.739 577.434 970.503 574.546C980.266 571.658 969.811 548.434 969.811 539.566C969.811 530.698 980.899 500.654 978.826 483.922C976.752 467.19 959.357 462.254 959.357 462.254Z" fill="#80C9AC" stroke="#263238" stroke-width="1.04742" stroke-linecap="round" stroke-linejoin="round"/>
<path d="M866.88 513.454C866.563 493.179 854.928 475.873 839.462 468.398V464.302L796.838 464.609C772.848 464.794 753.638 487.137 754.128 514.376C754.617 541.614 774.288 563.671 798.307 563.528L840.931 563.22V559.124C855.907 551.199 867.024 533.729 866.88 513.454Z" fill="#263238" stroke="#263238" stroke-width="1.04742" stroke-linecap="round" stroke-linejoin="round"/>
<path d="M886.003 513.311C885.686 492.011 874.137 473.825 857.894 465.92V461.558L839.635 461.701C814.406 461.885 794.333 485.294 794.765 513.986C795.197 542.679 815.961 565.78 841.19 565.596L859.45 565.453V561.111C875.318 552.96 886.32 534.528 886.003 513.311Z" fill="white" stroke="#263238" stroke-width="1.04742" stroke-linecap="round" stroke-linejoin="round"/>
<path d="M904.32 513.167C904.752 541.839 884.65 565.269 859.45 565.453C834.25 565.637 813.37 542.536 813.024 513.864C812.678 485.192 832.694 461.763 857.894 461.558C883.094 461.353 903.83 484.475 904.32 513.167Z" fill="#737373" stroke="#263238" stroke-width="1.04742" stroke-linecap="round" stroke-linejoin="round"/>
<path d="M893.837 512.287C894.039 525.865 884.506 536.965 872.554 537.067C860.602 537.17 850.752 526.193 850.551 512.492C850.349 498.79 859.882 487.916 871.834 487.711C883.786 487.506 893.635 498.688 893.837 512.287Z" fill="#263238" stroke="#263238" stroke-width="1.04742" stroke-linecap="round" stroke-linejoin="round"/>
<path d="M1233.22 614.4C1235.59 601.776 1236.6 589.041 1236.24 576.307C1226.88 579.379 1172.28 580.506 1167.26 580.587C1162.25 580.669 1107.65 579.379 1098.29 576.307C1097.88 589.038 1098.84 601.773 1101.17 614.4C1104.94 631.009 1138.12 697.508 1138.87 700.723C1139.84 703.824 1141.1 706.875 1142.64 709.857C1142.64 709.857 1123.78 719.503 1115.48 723.251C1107.19 726.999 1113.24 728.617 1121.53 728.617C1129.82 728.617 1147.16 726.999 1152.43 726.999C1157.1 726.999 1165.22 724.111 1167.12 723.415C1169.02 724.111 1177.14 726.999 1181.78 726.999C1187.08 726.999 1204.42 728.617 1212.71 728.617C1221 728.617 1227.11 726.999 1218.76 723.251C1210.41 719.503 1191.6 709.857 1191.6 709.857C1193.14 706.875 1194.4 703.824 1195.37 700.723C1196.27 697.446 1229.44 630.948 1233.22 614.4Z" fill="#263238" stroke="#263238" stroke-width="1.04742" stroke-linecap="round" stroke-linejoin="round"/>
<path d="M1155.86 472.044C1155.86 472.044 1126.69 478.822 1111.62 485.622C1096.56 492.421 1081.44 529.244 1081.44 530.678C1080.57 533.243 1079.4 535.751 1077.93 538.173C1077.93 538.173 1062.84 535.675 1059.84 544.604C1056.85 553.533 1074.9 564.982 1084.46 565.35C1094.03 565.719 1097.02 563.569 1097.02 563.569C1097.02 563.569 1091 572.15 1093.51 575.713C1096.01 579.277 1117.15 592.527 1158.88 592.097C1200.61 591.667 1230.88 586.731 1235.29 582.451C1239.7 578.171 1240.33 569.221 1240.33 569.221C1240.33 569.221 1255.91 566.354 1261.44 559.206C1266.97 552.059 1265.96 544.543 1262.94 537.047C1259.91 529.551 1244.33 507.781 1233.79 495.616C1223.25 483.451 1201.1 476.672 1190.59 474.522C1180.08 472.371 1162.89 472.044 1155.86 472.044Z" fill="#80C9AC" stroke="#263238" stroke-width="1.04742" stroke-linecap="round" stroke-linejoin="round"/>
<path d="M1164.7 502.149C1168.88 501.166 1181.98 492.892 1187.02 484.618C1189.01 481.451 1190.42 478.111 1191.2 474.685L1190.53 474.542C1179.99 472.392 1162.89 472.044 1155.97 472.044C1155.97 472.044 1149.87 473.457 1141.8 475.648C1141.85 480.075 1143.03 484.459 1145.26 488.591C1149.81 496.865 1160.64 503.153 1164.7 502.149Z" fill="white" stroke="#263238" stroke-width="1.04742" stroke-linecap="round" stroke-linejoin="round"/>
<path d="M1212.65 518.861C1212.65 518.861 1224.72 564.634 1238.4 569.344" stroke="#263238" stroke-width="1.04742" stroke-linecap="round" stroke-linejoin="round"/>
<path d="M1097.02 563.569C1097.02 563.569 1112.11 523.162 1113.12 519.229" stroke="#263238" stroke-width="1.04742" stroke-linecap="round" stroke-linejoin="round"/>
<path d="M1232.15 539.546C1232.15 539.546 1223.8 540.877 1223.8 545.178" stroke="#263238" stroke-width="1.04742" stroke-linecap="round" stroke-linejoin="round"/>
<path d="M1090.25 540.201C1090.25 540.201 1099.56 544.502 1098.63 551.117" stroke="#263238" stroke-width="1.04742" stroke-linecap="round" stroke-linejoin="round"/>
<path d="M1152.58 727.04C1157.24 727.04 1165.36 724.152 1167.26 723.456C1169.16 724.152 1177.29 727.04 1181.92 727.04C1187.22 727.04 1204.56 728.658 1212.85 728.658C1221.15 728.658 1227.25 727.04 1218.9 723.292C1211.67 720.036 1196.52 712.335 1192.67 710.369C1183.77 716.145 1166.17 714.711 1166.17 714.711C1162.6 714.329 1159.07 713.796 1155.6 713.114C1150.33 712.028 1142.78 709.898 1142.78 709.898C1142.78 709.898 1123.92 719.544 1115.63 723.292C1107.33 727.04 1113.38 728.658 1121.67 728.658C1129.97 728.658 1147.31 727.04 1152.58 727.04Z" fill="#80C9AC" stroke="#263238" stroke-width="1.04742" stroke-linecap="round" stroke-linejoin="round"/>
<path d="M1166.17 709.98V616.468" stroke="white" stroke-width="1.04742" stroke-linecap="round" stroke-linejoin="round"/>
<path d="M1167.26 723.354L1166.17 714.609V709.98" stroke="#263238" stroke-width="1.04742" stroke-linecap="round" stroke-linejoin="round"/>
<path d="M1155.6 613.253H1177.46" stroke="white" stroke-width="1.04742" stroke-linecap="round" stroke-linejoin="round"/>
<path d="M1127.03 418.386C1127.03 418.386 1111.36 425.062 1113.7 430.92C1116.03 436.777 1123.11 437.903 1121.56 441.16C1120 444.416 1114.56 446.464 1120.75 448.512C1124.28 449.635 1127.97 450.48 1131.75 451.031C1131.75 451.031 1137.51 465.244 1147.42 467.743C1157.33 470.241 1174.49 468.582 1186.65 467.476C1190.75 467.191 1194.64 466.023 1197.79 464.127C1200.94 462.232 1203.2 459.7 1204.27 456.868C1205.45 453.816 1199.17 457.441 1196.04 454.083C1192.9 450.724 1197.62 442.102 1201.13 434.565C1204.65 427.028 1194.08 412.815 1180.37 408.084C1166.66 403.354 1140.48 405.832 1127.03 418.386Z" fill="#263238" stroke="#263238" stroke-width="1.04742" stroke-linecap="round" stroke-linejoin="round"/>
<path d="M1153.35 466.944C1151.36 471.619 1150.01 476.42 1149.32 481.28C1148.8 487.424 1155.86 494.162 1163.4 493.793C1170.95 493.425 1177.46 482.714 1178.47 477.409C1179.47 472.105 1175.96 457.748 1175.96 457.748C1175.96 457.748 1164.44 458.117 1159.86 460.964C1157.17 462.642 1154.96 464.672 1153.35 466.944Z" fill="white" stroke="#263238" stroke-width="1.04742" stroke-linecap="round" stroke-linejoin="round"/>
<path d="M1143.13 426.189C1143.13 426.189 1143.5 434.545 1155.28 442.573C1162.36 447.442 1170.76 451.239 1179.96 453.734C1179.76 455.565 1179.1 457.354 1178.01 459.018C1177.49 459.714 1176.7 460.283 1175.72 460.648C1174.74 461.014 1173.63 461.16 1172.53 461.066H1168.59C1168.59 461.066 1162.83 470.671 1155.86 472.064C1148.89 473.457 1131.75 472.494 1129.39 460.227C1127.03 447.959 1126.66 437.924 1128.61 435.405C1130.57 432.886 1143.13 426.189 1143.13 426.189Z" fill="white" stroke="#263238" stroke-width="1.04742" stroke-linecap="round" stroke-linejoin="round"/>
<path d="M1266.37 534.118C1268.15 531.557 1269.24 528.777 1269.56 525.926C1269.56 522.199 1259.83 516.854 1258.04 515.523C1256.26 514.191 1254.47 514.335 1254.1 516.198C1254.09 517.245 1254.39 518.28 1254.97 519.242C1255.55 520.204 1256.4 521.071 1257.47 521.789C1258.93 522.608 1259.98 523.733 1260.49 525.005C1260.66 525.926 1257.26 530.452 1258.96 533.381C1260.66 536.31 1265.44 537.19 1266.37 534.118Z" fill="white" stroke="#263238" stroke-width="1.04742" stroke-linecap="round" stroke-linejoin="round"/>
<path d="M876.326 513.208C876.326 513.208 918.72 522.854 944.208 545.382C969.696 567.91 986.429 564.675 1018.11 557.179C1049.79 549.683 1061.86 522.854 1105.6 545.382C1149.35 567.91 1158.39 576.471 1194.6 563.61C1230.8 550.748 1250.38 519.639 1283.59 530.35C1316.79 541.061 1301.67 595.886 1304.7 622.51C1307.72 649.134 1303.17 715.837 1310.72 724.418C1318.26 733 1395.19 726.466 1395.19 726.466" stroke="#263238" stroke-width="3.14226" stroke-linecap="round" stroke-linejoin="round"/>
<path d="M955.728 477.409C955.728 477.409 947.29 467.62 934.848 470.18C921.687 472.883 914.89 486.257 911.808 494.592C908.727 502.927 906.653 511.939 901.008 519.7C901.008 519.7 876.067 519.393 862.157 516.526C851.543 514.173 841.104 511.439 830.88 508.334C830.88 508.334 825.955 503.439 822.471 502.477C818.986 501.514 809.943 499.63 809.28 501.105C808.618 502.579 819.763 507.433 819.763 507.433C819.763 507.433 799.027 509.481 796.954 511.058C794.88 512.635 811.613 517.345 811.613 517.345C811.613 517.345 817.863 518.779 833.069 516.198C833.069 516.198 888.855 541.389 899.971 544.277C911.088 547.164 917.251 548.086 924.826 537.682C932.4 527.278 957.543 501.473 961.546 491.09" fill="#80C9AC"/>
<path d="M955.728 477.409C955.728 477.409 947.29 467.62 934.848 470.18C921.687 472.883 914.89 486.257 911.808 494.592C908.727 502.927 906.653 511.939 901.008 519.7C901.008 519.7 876.067 519.393 862.157 516.526C851.543 514.173 841.104 511.439 830.88 508.334C830.88 508.334 825.955 503.439 822.471 502.477C818.986 501.514 809.943 499.63 809.28 501.105C808.618 502.579 819.763 507.433 819.763 507.433C819.763 507.433 799.027 509.481 796.954 511.058C794.88 512.635 811.613 517.345 811.613 517.345C811.613 517.345 817.863 518.779 833.069 516.198C833.069 516.198 888.855 541.389 899.971 544.277C911.088 547.164 917.251 548.086 924.826 537.682C932.4 527.278 957.543 501.473 961.546 491.09" stroke="#263238" stroke-width="1.04742" stroke-linecap="round" stroke-linejoin="round"/>
<path d="M845.366 512.512C837.216 510.341 830.966 508.416 830.966 508.416C830.966 508.416 826.041 503.521 822.556 502.559C819.072 501.596 810.029 499.712 809.366 501.187C808.704 502.661 819.849 507.515 819.849 507.515C819.849 507.515 799.113 509.563 797.04 511.14C794.966 512.717 811.699 517.427 811.699 517.427C811.699 517.427 817.949 518.861 833.155 516.28L840.96 519.782L845.366 512.512Z" fill="white" stroke="#263238" stroke-width="1.04742" stroke-linecap="round" stroke-linejoin="round"/>
<path d="M1060.39 537.887C1058.6 535.325 1057.52 532.545 1057.19 529.695C1057.19 525.967 1066.95 520.643 1068.71 519.311C1070.47 517.98 1072.25 518.123 1072.63 519.987C1072.63 521.033 1072.34 522.069 1071.76 523.031C1071.18 523.992 1070.33 524.859 1069.26 525.578C1067.8 526.396 1066.74 527.522 1066.23 528.794C1066.06 529.695 1069.46 534.241 1067.76 537.17C1066.06 540.099 1061.31 540.938 1060.39 537.887Z" fill="white" stroke="#263238" stroke-width="1.04742" stroke-linecap="round" stroke-linejoin="round"/>
<path d="M1067.1 526.643C1067.1 526.643 1059.06 537.19 1063.73 540.979C1068.39 544.768 1072.92 532.46 1073.78 529.06C1074.64 525.66 1070.06 522.24 1067.1 526.643Z" fill="white" stroke="#263238" stroke-width="1.04742" stroke-linecap="round" stroke-linejoin="round"/>
<path d="M1073.72 530.432C1073.72 530.432 1065.69 540.979 1070.35 544.768C1075.02 548.557 1079.54 536.248 1080.4 532.849C1081.27 529.449 1076.69 525.906 1073.72 530.432Z" fill="white" stroke="#263238" stroke-width="1.04742" stroke-linecap="round" stroke-linejoin="round"/>
<path d="M1081.01 531.313C1081.01 531.313 1072.97 541.86 1077.64 545.649C1082.3 549.437 1086.83 537.129 1087.69 533.729C1088.55 530.33 1083.97 526.889 1081.01 531.313Z" fill="white" stroke="#263238" stroke-width="1.04742" stroke-linecap="round" stroke-linejoin="round"/>
<path d="M1090.34 531.395C1090.34 531.395 1082.85 539.587 1086.94 542.679C1091.03 545.772 1095.44 536.044 1096.3 533.238C1097.16 530.432 1093.1 527.708 1090.34 531.395Z" fill="white" stroke="#263238" stroke-width="1.04742" stroke-linecap="round" stroke-linejoin="round"/>
<path d="M1261.01 527.053C1261.01 527.053 1269.04 537.6 1264.38 541.389C1259.71 545.178 1255.19 532.849 1254.33 529.449C1253.46 526.049 1258.04 522.629 1261.01 527.053Z" fill="white" stroke="#263238" stroke-width="1.04742" stroke-linecap="round" stroke-linejoin="round"/>
<path d="M1254.38 530.739C1254.38 530.739 1262.42 541.286 1257.75 545.075C1253.09 548.864 1248.57 536.535 1247.7 533.135C1246.84 529.736 1251.42 526.336 1254.38 530.739Z" fill="white" stroke="#263238" stroke-width="1.04742" stroke-linecap="round" stroke-linejoin="round"/>
<path d="M1247.04 531.722C1247.04 531.722 1255.07 542.269 1250.41 546.058C1245.74 549.847 1241.22 537.539 1240.39 534.118C1239.55 530.698 1244.16 527.299 1247.04 531.722Z" fill="white" stroke="#263238" stroke-width="1.04742" stroke-linecap="round" stroke-linejoin="round"/>
<path d="M1237.77 531.804C1237.77 531.804 1245.25 540.099 1241.17 543.089C1237.08 546.079 1232.67 536.453 1231.83 533.647C1231 530.842 1235 528.118 1237.77 531.804Z" fill="white" stroke="#263238" stroke-width="1.04742" stroke-linecap="round" stroke-linejoin="round"/>
<path d="M246.874 648.499V660.132C241.197 664.544 237.115 669.872 234.979 675.656C231.494 685.158 220.579 726.057 223.459 727.122C226.339 728.187 253.44 732.59 262.08 731.668C271.987 730.604 280.426 730.972 275.443 727.081C270.461 723.19 244.282 712.315 244.282 712.315C244.282 712.315 273.082 682.701 279.475 671.764C285.869 660.828 286.906 643.912 286.906 643.912L248.256 642.867L246.874 648.499Z" fill="white" stroke="#263238" stroke-width="1.04742" stroke-linecap="round" stroke-linejoin="round"/>
<path d="M262.08 731.669C271.987 730.604 280.426 730.972 275.443 727.081C270.461 723.19 244.282 712.315 244.282 712.315L243.303 716.534L224.439 714.895C223.056 721.736 222.451 726.753 223.459 727.183C226.541 728.166 253.44 732.59 262.08 731.669Z" fill="#263238" stroke="#263238" stroke-width="1.04742" stroke-linecap="round" stroke-linejoin="round"/>
<path d="M341.568 654.52L346.032 660.173C344.182 662.71 343.093 665.493 342.835 668.345C342.578 671.197 343.156 674.056 344.535 676.741C348.999 686.612 359.424 722.923 359.424 725.033C359.424 727.142 365.847 728.555 370.944 728.555C376.042 728.555 390.154 729.252 392.141 729.252C394.128 729.252 408.499 731.013 413.453 728.904C418.407 726.794 407.146 722.555 399.715 720.097C392.285 717.64 375.927 711.291 375.927 711.291C375.927 711.291 379.872 682.373 379.872 669.675C379.872 656.978 383.847 652.759 378.403 644.997C372.96 637.235 338.746 648.54 338.746 648.54L341.568 654.52Z" fill="white" stroke="#263238" stroke-width="1.04742" stroke-linecap="round" stroke-linejoin="round"/>
<path d="M399.571 720.097C392.14 717.619 375.782 711.291 375.782 711.291L373.795 716.575L357.868 718.623C358.819 722.145 359.423 724.562 359.423 725.053C359.423 727.101 365.846 728.576 370.943 728.576C376.041 728.576 390.153 729.272 392.14 729.272C394.127 729.272 408.499 731.034 413.452 728.924C418.406 726.815 407.001 722.555 399.571 720.097Z" fill="#263238" stroke="#263238" stroke-width="1.04742" stroke-linecap="round" stroke-linejoin="round"/>
<path d="M314.87 419.84C310.984 415.117 306.542 410.636 301.593 406.446C294.768 400.978 273.369 401.285 263.981 408.494C254.592 415.703 257.558 428.564 261.101 432.21C264.643 435.855 271.785 452.895 271.785 452.895L273.485 465.06L313.257 475.095L305.136 455.332C305.136 455.332 320.544 453.284 321.811 449.864C323.078 446.443 319.248 434.954 319.248 434.954C319.248 434.954 324.374 432.517 323.942 430.387C323.51 428.257 314.87 419.84 314.87 419.84Z" fill="white" stroke="#263238" stroke-width="1.04742" stroke-linecap="round" stroke-linejoin="round"/>
<path d="M269.108 432.947C269.108 432.947 275.905 437.043 279.62 432.354C283.335 427.664 286.157 423.076 286.157 419.103C286.157 415.13 272.189 411.832 281.492 409.17C290.794 406.508 297.505 412.426 301.652 406.487C305.799 400.548 302.026 399.913 279.677 399.913C257.329 399.913 246.154 407.859 250.877 417.792C254.655 425.127 259.329 432.213 264.845 438.969L269.108 432.947Z" fill="#263238" stroke="#263238" stroke-width="1.04742" stroke-linecap="round" stroke-linejoin="round"/>
<path d="M316.138 426.865C316.138 428.367 315.511 429.836 314.337 431.086C313.163 432.335 311.494 433.309 309.542 433.884C307.589 434.459 305.441 434.61 303.368 434.317C301.296 434.024 299.392 433.3 297.898 432.237C296.403 431.175 295.386 429.821 294.973 428.347C294.561 426.873 294.773 425.345 295.581 423.957C296.39 422.569 297.76 421.382 299.517 420.547C301.274 419.712 303.34 419.267 305.453 419.267C308.287 419.267 311.004 420.067 313.008 421.492C315.012 422.917 316.138 424.849 316.138 426.865V426.865Z" stroke="#263238" stroke-width="1.04742" stroke-linecap="round" stroke-linejoin="round"/>
<path d="M314.583 420.127C315.826 419.765 317.156 419.577 318.499 419.574C320.724 419.577 322.885 420.104 324.643 421.074C326.4 422.044 327.656 423.401 328.213 424.933C328.769 426.465 328.595 428.085 327.718 429.539C326.841 430.993 325.311 432.199 323.367 432.968" stroke="#263238" stroke-width="1.04742" stroke-linecap="round" stroke-linejoin="round"/>
<path d="M294.768 426.865L269.107 432.947" stroke="#263238" stroke-width="1.04742" stroke-linecap="round" stroke-linejoin="round"/>
<path d="M276.48 436.9C276.48 436.9 271.354 429.302 266.227 430.756C261.101 432.21 263.664 444.15 268.79 445.358C270.513 445.634 272.304 445.612 274.012 445.295C275.721 444.978 277.298 444.375 278.611 443.535C278.611 443.535 282.902 449.925 288.029 451.727" fill="white"/>
<path d="M276.48 436.9C276.48 436.9 271.354 429.302 266.227 430.756C261.101 432.21 263.664 444.15 268.79 445.358C270.513 445.634 272.304 445.612 274.012 445.295C275.721 444.978 277.298 444.375 278.611 443.535C278.611 443.535 282.902 449.925 288.029 451.727" stroke="#263238" stroke-width="1.04742" stroke-linecap="round" stroke-linejoin="round"/>
<path d="M242.842 573.44L239.645 602.563L230.083 645.673C230.083 645.673 252.432 658.145 273.283 658.145C294.135 658.145 299.866 656.261 299.866 656.261L311.559 612.024L323.251 658.534C323.251 658.534 346.291 655.892 361.555 653.23C372.169 651.13 382.228 647.809 391.335 643.4L360.49 586.301L353.808 556.851C353.808 556.851 319.248 559.124 298.483 559.882C277.719 560.64 250.099 556.851 250.099 556.851L242.842 573.44Z" fill="#80C9AC" stroke="#263238" stroke-width="1.04742" stroke-linecap="round" stroke-linejoin="round"/>
<path d="M264.759 457.073C264.759 457.073 313.719 469.217 328.839 481.014C337.191 487.567 346.551 532.419 349.92 543.375C353.29 554.332 359.165 576.143 359.165 576.143C359.165 576.143 329.299 585.728 306.202 586.076C283.104 586.424 238.781 578.888 238.781 578.888C238.781 578.888 244.051 530.289 244.051 507.699C244.051 485.11 244.541 470.364 249.811 463.176C249.84 463.237 258.509 456.376 264.759 457.073Z" fill="#263238" stroke="#263238" stroke-width="1.04742" stroke-linecap="round" stroke-linejoin="round"/>
<path d="M251.885 582.41C251.885 582.41 254.535 614.175 251.885 625.91C250.025 633.481 246.811 640.852 242.323 647.844" stroke="#263238" stroke-width="1.04742" stroke-linecap="round" stroke-linejoin="round"/>
<path d="M252.95 597.545C256.949 596.568 260.523 594.869 263.32 592.615C266.117 590.36 268.042 587.627 268.906 584.683" stroke="#263238" stroke-width="1.04742" stroke-linecap="round" stroke-linejoin="round"/>
<path d="M232.733 639.529C232.733 639.529 259.344 655.79 300.816 649.769" stroke="#263238" stroke-width="1.04742" stroke-linecap="round" stroke-linejoin="round"/>
<path d="M322.099 648.97C322.099 648.97 365.702 645.571 384.854 636.498" stroke="#263238" stroke-width="1.04742" stroke-linecap="round" stroke-linejoin="round"/>
<path d="M517.133 442.368C517.133 442.368 512.928 444.58 498.269 452.198C483.609 459.817 495.158 471.327 495.158 471.327C495.158 471.327 484.675 472.494 470.678 482.959C456.681 493.425 476.928 511.386 495.849 514.191C514.771 516.997 536.889 500.347 543.513 484.905C550.137 469.463 541.382 446.177 536.976 441.364C532.569 436.552 517.133 442.368 517.133 442.368Z" fill="#263238" stroke="#263238" stroke-width="1.04742" stroke-linecap="round" stroke-linejoin="round"/>
<path d="M572.659 440.32C572.659 440.32 579.946 432.312 573.35 420.7C566.755 409.088 547.056 403.784 527.875 412.201C521.482 414.906 516.524 419.036 513.769 423.95C511.014 428.864 510.617 434.287 512.64 439.378C514.512 444.744 523.958 452.997 525.946 453.12C527.933 453.243 545.184 457.708 556.963 453.796C568.742 449.884 572.659 440.32 572.659 440.32Z" fill="#263238" stroke="#263238" stroke-width="1.04742" stroke-linecap="round" stroke-linejoin="round"/>
<path d="M487.901 710.656C487.901 710.656 501.581 725.791 525.341 728.371C549.101 730.952 527.731 715.796 523.728 713.503C519.725 711.209 491.126 706.253 487.901 710.656Z" fill="#737373" stroke="#263238" stroke-width="1.04742" stroke-linecap="round" stroke-linejoin="round"/>
<path d="M614.477 714.547C614.477 714.547 640.599 719.114 638.583 723.128C636.567 727.142 615.284 726.835 602.842 724.541C590.4 722.248 578.708 718.827 580.32 715.121C581.933 711.414 614.477 714.547 614.477 714.547Z" fill="#737373" stroke="#263238" stroke-width="1.04742" stroke-linecap="round" stroke-linejoin="round"/>
<path d="M540.202 470.426C540.202 470.426 505.239 474.071 498.845 482.857C492.452 491.643 501.466 539.505 501.466 539.505C501.466 539.505 486.548 562.913 486.346 577.987C486.145 593.06 495.591 619.581 494.842 626.196C494.093 632.811 484.532 708.116 484.532 710.164C484.532 712.212 504.692 716.8 533.751 719.258C562.81 721.715 618.394 714.363 618.394 714.363C618.394 714.363 617.3 669.921 620.209 643.42C623.117 616.919 618.97 593.101 611.569 583.209C604.167 573.317 569.693 537.702 569.693 537.702C569.693 537.702 586.397 516.157 587.434 506.737C588.471 497.316 583.085 492.401 570.471 481.567C566.722 478.371 562.114 475.739 556.916 473.826C551.718 471.913 546.036 470.757 540.202 470.426Z" fill="#80C9AC" stroke="#263238" stroke-width="1.04742" stroke-linecap="round" stroke-linejoin="round"/>
<path d="M569.779 537.723C569.779 537.723 586.483 516.178 587.52 506.757C588.557 497.336 583.171 492.421 570.557 481.587C569.952 481.055 569.319 480.584 568.685 480.092L568.224 480.399C555.264 495.452 512.41 521.175 499.651 528.671C500.631 535.081 501.466 539.505 501.466 539.505C501.466 539.505 486.547 562.913 486.346 577.986C486.585 584.855 487.547 591.701 489.226 598.466C519.494 586.178 559.987 563.179 581.904 550.359C575.05 543.15 569.779 537.723 569.779 537.723Z" fill="#737373" stroke="#263238" stroke-width="1.04742" stroke-linecap="round" stroke-linejoin="round"/>
<path d="M533.75 452.854C534.717 458.474 535.246 464.129 535.334 469.791C534.874 473.989 536.774 483.574 546.855 486.584C556.935 489.595 563.271 485.396 563.242 481.178C562.876 477.693 561.909 474.254 560.362 470.938L560.65 459.366C560.65 459.366 543.254 451.625 533.75 452.854Z" fill="white" stroke="#263238" stroke-width="1.04742" stroke-linecap="round" stroke-linejoin="round"/>
<path d="M524.707 445.338C524.707 445.338 517.306 440.709 517.075 447.386C516.845 454.062 525.485 456.274 527.386 456.724C528.99 456.879 530.617 456.594 531.936 455.926C531.936 455.926 545.357 464.118 556.128 464.65C566.899 465.183 571.277 461.64 573.811 447.734C576.346 433.828 556.157 419.717 556.157 419.717C556.157 419.717 538.877 442.368 524.707 445.338Z" fill="white" stroke="#263238" stroke-width="1.04742" stroke-linecap="round" stroke-linejoin="round"/>
<path d="M360 575.857C359.902 573.483 360.45 571.119 361.613 568.893C363.398 566.108 373.133 564.511 375.293 563.978C377.453 563.446 378.547 563.978 377.914 565.432C377.41 566.214 376.688 566.915 375.792 567.492C374.896 568.069 373.844 568.511 372.701 568.791C371.211 569.045 369.872 569.625 368.871 570.45C368.323 571.105 368.669 575.304 365.991 577.085C363.312 578.867 359.107 578.376 360 575.857Z" fill="white" stroke="#263238" stroke-width="1.04742" stroke-linecap="round" stroke-linejoin="round"/>
<path d="M580.723 514.273C580.723 514.273 546.163 511.058 530.928 528.22C515.693 545.382 487.21 605.43 434.419 615.096C381.629 624.763 366.538 547.512 334.858 549.663C304.675 551.711 283.594 549.663 265.478 573.256C255.802 585.892 207.418 723.866 184.55 725.279C111.715 729.805 64.8289 726.856 64.8289 726.856" stroke="#263238" stroke-width="3.14226" stroke-linecap="round" stroke-linejoin="round"/>
<path d="M267.005 458.056C267.005 458.056 259.027 455.782 248.371 460.308C237.715 464.834 209.03 514.396 211.161 519.7C213.293 525.005 243.59 534.835 260.611 538.235C277.632 541.635 308.477 545.812 308.477 545.812C308.477 545.812 318.038 556.401 321.235 556.769C325.885 556.725 330.516 556.347 335.059 555.643C335.059 555.643 340.819 559.043 343.037 555.254C345.254 551.465 340.906 546.57 336.125 542.781C331.344 538.993 311.126 537.108 311.126 537.108L256.32 510.239L279.36 479.99" fill="#263238"/>
<path d="M267.005 458.056C267.005 458.056 259.027 455.782 248.371 460.308C237.715 464.834 209.03 514.396 211.161 519.7C213.293 525.005 243.59 534.835 260.611 538.235C277.632 541.635 308.477 545.812 308.477 545.812C308.477 545.812 318.038 556.401 321.235 556.769C325.885 556.725 330.516 556.347 335.059 555.643C335.059 555.643 340.819 559.043 343.037 555.254C345.254 551.465 340.906 546.57 336.125 542.781C331.344 538.993 311.126 537.108 311.126 537.108L256.32 510.239L279.36 479.99" stroke="#263238" stroke-width="1.04742" stroke-linecap="round" stroke-linejoin="round"/>
<path d="M321.236 556.749C325.885 556.704 330.516 556.327 335.059 555.622C335.059 555.622 340.82 559.022 343.037 555.233C345.255 551.444 340.906 546.55 336.125 542.761C331.344 538.972 311.127 537.088 311.127 537.088L256.32 510.239L264.499 499.405C244.023 490.332 230.429 491.008 223.085 492.831C215.741 505.364 210.154 517.243 211.133 519.68C213.264 524.984 243.562 534.815 260.583 538.214C277.604 541.614 308.448 545.792 308.448 545.792C308.448 545.792 318.039 556.38 321.236 556.749Z" fill="white" stroke="#263238" stroke-width="1.04742" stroke-linecap="round" stroke-linejoin="round"/>
<path d="M663.811 515.113C661.478 497.234 649.411 482.55 635.011 476.713L634.55 473.068L596.937 475.546C575.769 476.938 561.168 497.603 564.307 521.687C567.446 545.772 587.145 564.142 608.313 562.647L645.926 560.169L645.437 556.524C658.109 548.987 666.144 532.992 663.811 515.113Z" fill="#263238" stroke="#263238" stroke-width="1.04742" stroke-linecap="round" stroke-linejoin="round"/>
<path d="M680.832 514.048C678.384 495.268 666.432 479.805 651.197 473.661L650.678 469.832L634.579 470.897C612.345 472.371 596.995 494.06 600.278 519.373C603.561 544.686 624.297 563.999 646.531 562.524L662.63 561.459L662.141 557.629C675.446 549.56 683.28 532.767 680.832 514.048Z" fill="white" stroke="#263238" stroke-width="1.04742" stroke-linecap="round" stroke-linejoin="round"/>
<path d="M696.96 512.922C700.272 538.235 684.922 559.923 662.659 561.398C640.397 562.872 619.69 543.539 616.32 518.246C612.95 492.954 628.358 471.142 650.592 469.77C672.826 468.398 693.619 487.629 696.96 512.922Z" fill="white" stroke="#263238" stroke-width="1.04742" stroke-linecap="round" stroke-linejoin="round"/>
<path d="M714.24 498.135L651.772 502.231C650.897 502.29 650.013 502.226 649.172 502.041C648.331 501.857 647.55 501.557 646.873 501.157C646.196 500.757 645.636 500.267 645.227 499.713C644.817 499.159 644.566 498.553 644.486 497.93C644.403 497.307 644.493 496.679 644.753 496.081C645.012 495.483 645.434 494.928 645.996 494.446C646.558 493.965 647.248 493.567 648.027 493.276C648.806 492.984 649.658 492.805 650.534 492.749L713.001 488.653C713.877 488.594 714.761 488.658 715.602 488.842C716.443 489.027 717.224 489.327 717.901 489.727C718.578 490.126 719.137 490.617 719.547 491.171C719.956 491.725 720.208 492.33 720.288 492.954C720.371 493.576 720.28 494.205 720.021 494.803C719.762 495.401 719.339 495.956 718.777 496.438C718.215 496.919 717.525 497.317 716.747 497.608C715.968 497.899 715.116 498.078 714.24 498.135Z" fill="#737373" stroke="#263238" stroke-width="1.04742" stroke-linecap="round" stroke-linejoin="round"/>
<path d="M718.876 533.34L656.409 537.436C655.533 537.495 654.65 537.431 653.809 537.247C652.968 537.062 652.187 536.762 651.51 536.362C650.833 535.963 650.273 535.472 649.864 534.918C649.454 534.364 649.202 533.759 649.123 533.135C649.04 532.513 649.13 531.884 649.389 531.286C649.648 530.688 650.071 530.133 650.633 529.651C651.195 529.17 651.885 528.772 652.664 528.481C653.443 528.189 654.295 528.01 655.171 527.954L717.638 523.858C719.404 523.749 721.159 524.14 722.522 524.945C723.886 525.75 724.749 526.905 724.924 528.159C725.008 528.782 724.917 529.41 724.658 530.008C724.399 530.606 723.976 531.161 723.414 531.643C722.852 532.124 722.162 532.522 721.383 532.813C720.605 533.105 719.753 533.284 718.876 533.34Z" fill="#737373" stroke="#263238" stroke-width="1.04742" stroke-linecap="round" stroke-linejoin="round"/>
<path d="M518.602 473.764C518.602 473.764 503.568 475.812 496.455 481.956C489.341 488.1 474.739 535.511 478.109 540.959C481.479 546.406 535.479 553.247 552.154 554.23C565.563 554.607 578.992 554.182 592.301 552.96C592.301 552.96 606.701 552.694 610.647 552.223C614.592 551.752 621.85 548.987 621.965 547.942C622.08 546.898 621.36 544.399 615.975 544.092C610.589 543.785 599.04 541.041 597.572 540.959C601.032 540.311 604.542 539.805 608.083 539.443C608.083 539.443 608.832 537.395 602.899 537.395C596.967 537.395 591.581 537.108 589.335 539.443C587.729 541.262 586.36 543.181 585.245 545.178C585.245 545.178 551.981 546.836 533.923 540.57C515.866 534.303 510.163 532.214 510.163 532.214L523.123 495.35" fill="#80C9AC"/>
<path d="M518.602 473.764C518.602 473.764 503.568 475.812 496.455 481.956C489.341 488.1 474.739 535.511 478.109 540.959C481.479 546.406 535.479 553.247 552.154 554.23C565.563 554.607 578.992 554.182 592.301 552.96C592.301 552.96 606.701 552.694 610.647 552.223C614.592 551.752 621.85 548.987 621.965 547.942C622.08 546.898 621.36 544.399 615.975 544.092C610.589 543.785 599.04 541.041 597.572 540.959C601.032 540.311 604.542 539.805 608.083 539.443C608.083 539.443 608.832 537.395 602.899 537.395C596.967 537.395 591.581 537.108 589.335 539.443C587.729 541.262 586.36 543.181 585.245 545.178C585.245 545.178 551.981 546.836 533.923 540.57C515.866 534.303 510.163 532.214 510.163 532.214L523.123 495.35" stroke="#263238" stroke-width="1.04742" stroke-linecap="round" stroke-linejoin="round"/>
<path d="M610.56 552.284C614.563 551.813 621.763 549.048 621.878 548.004C621.994 546.959 621.274 544.461 615.888 544.154C610.503 543.846 598.954 541.102 597.485 541.02C600.945 540.373 604.455 539.867 607.997 539.505C607.997 539.505 608.746 537.457 602.813 537.457C596.88 537.457 591.495 537.17 589.248 539.505C587.642 541.323 586.273 543.243 585.158 545.239C585.158 545.239 551.895 546.898 533.837 540.631C515.779 534.364 510.077 532.275 510.077 532.275L517.968 509.747C507.696 506.741 496.856 504.83 485.798 504.074C480.413 519.516 476.007 537.702 478.023 540.938C481.363 546.386 535.392 553.226 552.067 554.209C565.476 554.586 578.906 554.162 592.215 552.939C592.215 552.939 606.643 552.755 610.56 552.284Z" fill="white" stroke="#263238" stroke-width="1.04742" stroke-linecap="round" stroke-linejoin="round"/>
<path d="M367.315 571.884C367.315 571.884 356.198 577.802 357.897 581.714C359.597 585.626 368.87 577.618 371.174 575.263C373.478 572.908 371.664 569.344 367.315 571.884Z" fill="white" stroke="#263238" stroke-width="1.04742" stroke-linecap="round" stroke-linejoin="round"/>
<path d="M369.505 577.188C369.505 577.188 358.417 583.107 360.087 587.018C361.757 590.93 371.089 582.922 373.364 580.567C375.639 578.212 373.853 574.607 369.505 577.188Z" fill="white" stroke="#263238" stroke-width="1.04742" stroke-linecap="round" stroke-linejoin="round"/>
<path d="M374.774 580.628C374.774 580.628 363.686 586.547 365.386 590.459C367.085 594.371 376.358 586.363 378.662 584.008C380.966 581.652 379.152 578.048 374.774 580.628Z" fill="white" stroke="#263238" stroke-width="1.04742" stroke-linecap="round" stroke-linejoin="round"/>
<path d="M379.123 583.414C379.123 583.414 369.533 587.796 371.146 591.032C372.758 594.268 380.678 588.145 382.666 586.26C384.653 584.376 383.04 581.345 379.123 583.414Z" fill="white" stroke="#263238" stroke-width="1.04742" stroke-linecap="round" stroke-linejoin="round"/>
</svg>
